<svg width="149" height="200" viewBox="0 0 149 200" fill="none" xmlns="http://www.w3.org/2000/svg">
<g clip-path="url(#clip0)">
<path d="M76.0683 4.03818H75.8204C35.6432 4.03424 2.95605 36.7254 2.95605 76.9064C2.95605 98.9472 14.2126 116.115 26.76 133.224L75.722 200L124.896 133.224C137.44 116.107 148.7 98.9353 148.7 76.9064C148.7 36.8041 116.139 4.16412 76.0683 4.03818ZM75.8282 126.443C66.034 126.441 56.4601 123.536 48.3171 118.094C40.1741 112.651 33.8276 104.917 30.0801 95.8678C26.3325 86.8189 25.3522 76.862 27.2631 67.2559C29.1739 57.6499 33.8901 48.8262 40.8154 41.9003C47.7407 34.9745 56.5641 30.2576 66.17 28.346C75.7758 26.4343 85.7328 27.4139 94.782 31.1607C103.831 34.9075 111.566 41.2534 117.009 49.396C122.452 57.5386 125.359 67.1122 125.361 76.9064C125.343 90.0371 120.119 102.625 110.833 111.909C101.547 121.193 88.9589 126.416 75.8282 126.431V126.443Z" fill="#BFD0EE"/>
<path d="M73.1083 0H72.8604C32.6833 0 0 32.6872 0 72.8682C0 94.909 11.2605 112.081 23.804 129.19L72.7659 195.966L121.936 129.19C134.48 112.081 145.74 94.9011 145.74 72.8722C145.74 32.7698 113.183 0.129883 73.1083 0ZM72.8682 122.405C63.0735 122.405 53.4987 119.5 45.3546 114.059C37.2105 108.617 30.8627 100.883 27.1141 91.8342C23.3655 82.7852 22.3842 72.8278 24.2945 63.2211C26.2048 53.6145 30.9208 44.79 37.8462 37.8636C44.7715 30.9371 53.5953 26.2197 63.2016 24.3079C72.808 22.3961 82.7655 23.3757 91.8151 27.1229C100.865 30.8701 108.6 37.2166 114.043 45.3599C119.486 53.5031 122.391 63.0774 122.393 72.8722C122.377 86.0029 117.155 98.5914 107.871 107.877C98.5867 117.163 85.9989 122.387 72.8682 122.405Z" fill="#112240"/>
<path d="M110.558 90.2765C113.812 81.4227 113.605 71.6669 109.978 62.9592C106.351 54.2515 99.5713 47.2335 90.9939 43.3081C82.4165 39.3828 72.6736 38.8393 63.7128 41.7863C54.7521 44.7334 47.2337 50.9537 42.6606 59.204C38.0875 67.4543 36.7967 77.1266 39.0462 86.2874C41.2957 95.4482 46.9198 103.422 54.7941 108.616C62.6685 113.81 72.2129 115.84 81.5195 114.302C90.8261 112.763 99.2091 107.769 104.993 100.317L135.22 117.068L140.781 107.031L110.558 90.2765ZM82.7041 102.277C77.7944 103.684 72.5779 103.603 67.7141 102.045C62.8504 100.487 58.5579 97.5214 55.3793 93.5238C52.2008 89.5263 50.2791 84.676 49.8571 79.5862C49.4351 74.4965 50.5318 69.3959 53.0086 64.9295C55.4853 60.463 59.2309 56.8313 63.7717 54.4936C68.3124 52.1558 73.4444 51.217 78.5187 51.7959C83.593 52.3747 88.3817 54.4453 92.2792 57.7456C96.1768 61.046 99.0082 65.428 100.415 70.3375C102.296 76.9215 101.487 83.9827 98.1666 89.9709C94.846 95.9591 89.2848 100.385 82.7041 102.277Z" fill="#BFD0EE"/>
<path d="M108.267 86.2816C111.52 77.4316 111.312 67.6801 107.686 58.9764C104.06 50.2727 97.283 43.2581 88.7092 39.3348C80.1355 35.4115 70.3969 34.8685 61.4402 37.8143C52.4835 40.7602 44.9685 46.9779 40.3974 55.2245C35.8264 63.4711 34.5361 73.1391 36.7844 82.2959C39.0328 91.4527 44.6541 99.4235 52.5248 104.615C60.3955 109.807 69.9356 111.837 79.2382 110.299C88.5407 108.762 96.9203 103.77 102.702 96.322L132.929 113.073L138.491 103.037L108.267 86.2816ZM80.4132 98.282C75.5035 99.6887 70.287 99.6078 65.4232 98.0498C60.5595 96.4918 56.267 93.5265 53.0884 89.529C49.9099 85.5314 47.9882 80.6811 47.5662 75.5914C47.1442 70.5016 48.2409 65.4011 50.7177 60.9346C53.1944 56.4682 56.94 52.8364 61.4808 50.4987C66.0215 48.1609 71.1535 47.2221 76.2278 47.801C81.3021 48.3799 86.0908 50.4504 89.9883 53.7508C93.8859 57.0511 96.7173 61.4331 98.1245 66.3426C100.005 72.9266 99.1963 79.9878 95.8757 85.976C92.555 91.9642 86.9939 96.3901 80.4132 98.282Z" fill="#112240"/>
</g>
<defs>
<clipPath id="clip0">
<rect width="148.7" height="200" fill="white"/>
</clipPath>
</defs>
</svg>
